<svg width="25" height="28" viewBox="0 0 25 28" fill="none" xmlns="http://www.w3.org/2000/svg">
<path d="M12.6 0.666672C13.8494 0.666672 15.0667 0.810672 16.2347 1.08134C16.4076 1.1186 16.5713 1.18988 16.7164 1.29104C16.8615 1.39219 16.985 1.5212 17.0797 1.67055C17.1745 1.8199 17.2386 1.98661 17.2682 2.16096C17.2979 2.33532 17.2926 2.51384 17.2526 2.68612C17.2127 2.85841 17.1388 3.02102 17.0354 3.16449C16.932 3.30795 16.801 3.42941 16.6502 3.52178C16.4994 3.61415 16.3317 3.6756 16.1569 3.70253C15.9821 3.72947 15.8037 3.72136 15.632 3.67867C14.9745 3.52592 14.3064 3.4234 13.6334 3.372L13.0734 3.34134L13.5267 3.36801C15.4554 3.51437 17.3197 4.12754 18.9587 5.15467L19.3227 5.39201L20.1307 4.58401C20.3701 4.34233 20.6928 4.2013 21.0328 4.18976C21.3727 4.17823 21.7043 4.29707 21.9595 4.52196C22.2147 4.74685 22.3743 5.06078 22.4056 5.3995C22.437 5.73822 22.3377 6.07611 22.128 6.34401L22.0174 6.46934L21.3574 7.12934C23.2234 9.12098 24.3547 11.6892 24.5648 14.4103C24.7748 17.1314 24.051 19.8429 22.5128 22.0973C20.9746 24.3517 18.7138 26.0145 16.1035 26.8112C13.4931 27.6079 10.6892 27.491 8.15424 26.4798C5.61927 25.4686 3.50472 23.6235 2.15945 21.2489C0.814171 18.8743 0.318541 16.112 0.754323 13.4178C1.1901 10.7236 2.53126 8.25847 4.55654 6.42902C6.58181 4.59958 9.17021 3.51516 11.8947 3.35467L12.16 3.34134L12.08 3.34267C11.3907 3.36934 10.716 3.44934 10.0587 3.57467L9.56803 3.67867C9.2259 3.7524 8.8685 3.68865 8.57295 3.50118C8.27741 3.31371 8.06743 3.01756 7.98832 2.67663C7.90922 2.3357 7.96733 1.97734 8.15012 1.67888C8.33291 1.38042 8.62572 1.1658 8.96536 1.08134C10.1334 0.810672 11.352 0.666672 12.6 0.666672ZM12.6 8.66667C12.2464 8.66667 11.9073 8.80715 11.6572 9.0572C11.4072 9.30725 11.2667 9.64638 11.2667 10V15.3333C11.2667 15.687 11.4072 16.0261 11.6572 16.2761C11.9073 16.5262 12.2464 16.6667 12.6 16.6667C12.9537 16.6667 13.2928 16.5262 13.5428 16.2761C13.7929 16.0261 13.9334 15.687 13.9334 15.3333V10C13.9334 9.64638 13.7929 9.30725 13.5428 9.0572C13.2928 8.80715 12.9537 8.66667 12.6 8.66667Z" fill="url(#paint0_linear_2294_43)"/>
<defs>
<linearGradient id="paint0_linear_2294_43" x1="12.6004" y1="0.666672" x2="12.6004" y2="27.3339" gradientUnits="userSpaceOnUse">
<stop stop-color="#C521FF"/>
<stop offset="0.5" stop-color="#FF2164"/>
<stop offset="1" stop-color="#FF9B21"/>
</linearGradient>
</defs>
</svg>
