<svg width="29" height="29" viewBox="0 0 29 29" fill="none" xmlns="http://www.w3.org/2000/svg">
<path fill-rule="evenodd" clip-rule="evenodd" d="M16.5334 24.832C14.475 25.1949 12.3547 24.9041 10.4701 24.0004C8.58544 23.0967 7.03114 21.6255 6.02536 19.7933C5.76735 19.3337 5.33835 18.9946 4.83163 18.8496C4.3249 18.7046 3.78142 18.7654 3.31934 19.019C2.85726 19.2725 2.51393 19.6982 2.36401 20.2035C2.21408 20.7088 2.26967 21.2528 2.5187 21.7173C5.32136 26.8307 11.1587 29.8413 17.228 28.7707C24.8414 27.4293 29.9267 20.168 28.584 12.5533C27.24 4.93866 19.98 -0.146673 12.3654 1.19733C9.34849 1.72911 6.58921 3.23545 4.51038 5.48551C2.43155 7.73557 1.14786 10.6052 0.85603 13.6547C0.690697 15.4 2.54403 16.5333 4.01336 15.72L7.77336 13.6373C9.83603 12.496 8.79603 9.34533 6.4587 9.65599L6.3227 9.67466C7.2073 8.26273 8.43069 7.0942 9.88169 6.27525C11.3327 5.4563 12.9653 5.01288 14.6313 4.98529C16.2972 4.95769 17.9436 5.34679 19.4209 6.11724C20.8983 6.88768 22.1597 8.01505 23.0906 9.39691C24.0215 10.7788 24.5923 12.3713 24.7513 14.0299C24.9102 15.6885 24.6522 17.3604 24.0008 18.894C23.3493 20.4275 22.325 21.7739 21.0209 22.8109C19.7168 23.8479 18.1742 24.5427 16.5334 24.832Z" fill="url(#paint0_linear_2294_316)"/>
<defs>
<linearGradient id="paint0_linear_2294_316" x1="14.8224" y1="0.981934" x2="14.8224" y2="28.986" gradientUnits="userSpaceOnUse">
<stop stop-color="#C521FF"/>
<stop offset="0.5" stop-color="#FF2164"/>
<stop offset="1" stop-color="#FF9B21"/>
</linearGradient>
</defs>
</svg>
