<svg width="24" height="26" viewBox="0 0 24 26" fill="none" xmlns="http://www.w3.org/2000/svg">
<path fill-rule="evenodd" clip-rule="evenodd" d="M4 0.781333C4.49998 0.281202 5.17815 0.000151033 5.88533 0H18.1147C18.8219 0.000151033 19.5 0.281202 20 0.781333L23.2187 4C23.7188 4.49998 23.9998 5.17815 24 5.88533V21.3333C24 22.3942 23.5786 23.4116 22.8284 24.1618C22.0783 24.9119 21.0609 25.3333 20 25.3333H4C2.93913 25.3333 1.92172 24.9119 1.17157 24.1618C0.421427 23.4116 0 22.3942 0 21.3333V5.88533C0.000151033 5.17815 0.281202 4.49998 0.781333 4L4 0.781333ZM18.1147 2.66667H5.88533L3.21867 5.33333H20.7813L18.1147 2.66667ZM9.33333 12C9.33333 11.6464 9.19286 11.3072 8.94281 11.0572C8.69276 10.8071 8.35362 10.6667 8 10.6667C7.64638 10.6667 7.30724 10.8071 7.05719 11.0572C6.80714 11.3072 6.66667 11.6464 6.66667 12C6.66667 13.4145 7.22857 14.771 8.22876 15.7712C9.22896 16.7714 10.5855 17.3333 12 17.3333C13.4145 17.3333 14.771 16.7714 15.7712 15.7712C16.7714 14.771 17.3333 13.4145 17.3333 12C17.3333 11.6464 17.1929 11.3072 16.9428 11.0572C16.6928 10.8071 16.3536 10.6667 16 10.6667C15.6464 10.6667 15.3072 10.8071 15.0572 11.0572C14.8071 11.3072 14.6667 11.6464 14.6667 12C14.6667 12.7072 14.3857 13.3855 13.8856 13.8856C13.3855 14.3857 12.7072 14.6667 12 14.6667C11.2928 14.6667 10.6145 14.3857 10.1144 13.8856C9.61429 13.3855 9.33333 12.7072 9.33333 12Z" fill="url(#paint0_linear_2172_574)"/>
<defs>
<linearGradient id="paint0_linear_2172_574" x1="12" y1="0" x2="12" y2="25.3333" gradientUnits="userSpaceOnUse">
<stop stop-color="#C521FF"/>
<stop offset="0.5" stop-color="#FF2164"/>
<stop offset="1" stop-color="#FF9B21"/>
</linearGradient>
</defs>
</svg>
