<svg width="25" height="26" viewBox="0 0 25 26" fill="none" xmlns="http://www.w3.org/2000/svg">
<path d="M24.3999 17.524V19.3333C24.3999 20.4187 23.8919 21.3467 23.1866 22.076C22.4892 22.7987 21.5426 23.388 20.4772 23.8547C18.3412 24.788 15.4852 25.3333 12.3999 25.3333C9.31457 25.3333 6.45857 24.7893 4.32257 23.8547C3.25724 23.388 2.31057 22.7987 1.61324 22.076C0.966569 21.4093 0.486569 20.572 0.410569 19.6013L0.399902 19.3333V17.524C1.0199 17.876 1.68257 18.188 2.3919 18.4507C5.09857 19.452 8.63857 20.0107 12.3999 20.0107C16.1612 20.0107 19.7012 19.452 22.4079 18.4507C22.9399 18.2533 23.4452 18.0293 23.9266 17.78L24.3999 17.524ZM0.399902 10.1907C1.0199 10.5427 1.68257 10.8547 2.3919 11.1173C5.09857 12.1187 8.63857 12.6773 12.3999 12.6773C16.1612 12.6773 19.7012 12.1187 22.4079 11.1173C23.1172 10.8547 23.7799 10.544 24.3999 10.1907V14.3307C23.5145 15.0141 22.531 15.5598 21.4826 15.9493C19.1426 16.816 15.9306 17.3453 12.3999 17.3453C8.87057 17.3453 5.65857 16.816 3.31724 15.9493C2.26882 15.5598 1.28528 15.0141 0.399902 14.3307V10.1907ZM12.3999 0C15.4852 0 18.3412 0.544 20.4772 1.47867C21.5426 1.94533 22.4892 2.53467 23.1866 3.25733C23.8332 3.924 24.3132 4.76133 24.3892 5.732L24.3999 6V6.99733C23.5146 7.68077 22.531 8.22648 21.4826 8.616C19.1426 9.48267 15.9306 10.012 12.3999 10.012C8.87057 10.012 5.65857 9.48267 3.31724 8.616C2.38524 8.27067 1.5439 7.816 0.777236 7.27467L0.399902 6.99733V6C0.399902 4.91467 0.907902 3.98667 1.61324 3.25733C2.31057 2.53467 3.25724 1.94533 4.32257 1.47867C6.45857 0.545334 9.31457 0 12.3999 0Z" fill="url(#paint0_linear_2294_612)"/>
<defs>
<linearGradient id="paint0_linear_2294_612" x1="12.3999" y1="0" x2="12.3999" y2="25.3333" gradientUnits="userSpaceOnUse">
<stop stop-color="#C521FF"/>
<stop offset="0.5" stop-color="#FF2164"/>
<stop offset="1" stop-color="#FF9B21"/>
</linearGradient>
</defs>
</svg>
