<svg width="28" height="26" viewBox="0 0 28 26" fill="none" xmlns="http://www.w3.org/2000/svg">
<path fill-rule="evenodd" clip-rule="evenodd" d="M26.1987 5.13866C26.2427 3.16533 25.2374 1.43999 23.7547 0.575994C22.4827 -0.165339 20.908 -0.233339 19.5334 0.625328C18.16 -0.233339 16.584 -0.165339 15.312 0.575994C13.8294 1.43999 12.824 3.16533 12.868 5.13866C12.9254 7.68399 14.896 9.75733 17.78 11.4707C18.316 11.788 18.888 12.148 19.5334 12.148C20.1787 12.148 20.7507 11.788 21.2867 11.4707C24.1707 9.75733 26.1414 7.68399 26.1987 5.13866ZM9.38537 12.4373L6.73203 14.0947C6.234 13.6065 5.56409 13.3335 4.8667 13.3347H3.53337C2.82612 13.3347 2.14784 13.6156 1.64775 14.1157C1.14765 14.6158 0.866699 15.2941 0.866699 16.0013V21.3347C0.866699 22.0419 1.14765 22.7202 1.64775 23.2203C2.14784 23.7204 2.82612 24.0013 3.53337 24.0013H4.8667C5.33479 24.0013 5.79462 23.8781 6.19999 23.644C6.60537 23.41 6.94199 23.0734 7.17603 22.668H8.23737C8.4442 22.6678 8.64825 22.7157 8.83337 22.808L11.9667 24.3747C13.2929 25.0374 14.8023 25.2392 16.256 24.948L20.536 24.0933C21.1214 23.976 21.6734 23.7293 22.1494 23.3707L26.244 20.3C26.6442 19.9999 26.9691 19.6108 27.1928 19.1635C27.4166 18.7161 27.5332 18.2229 27.5334 17.7227V17.648C27.5334 15.288 25.0494 13.752 22.9374 14.808C22.0174 15.268 21.168 15.9747 20.3134 16.5453C20.8067 15.0613 20.0214 13.4147 18.46 13.0253L13.5054 11.7853C12.8101 11.6116 12.0869 11.5798 11.379 11.6918C10.6711 11.8039 9.99306 12.0574 9.38537 12.4373Z" fill="url(#paint0_linear_2294_598)"/>
<defs>
<linearGradient id="paint0_linear_2294_598" x1="14.2" y1="0.000640869" x2="14.2" y2="25.0778" gradientUnits="userSpaceOnUse">
<stop stop-color="#C521FF"/>
<stop offset="0.5" stop-color="#FF2164"/>
<stop offset="1" stop-color="#FF9B21"/>
</linearGradient>
</defs>
</svg>
