<svg width="16" height="16" viewBox="0 0 16 16" fill="none" xmlns="http://www.w3.org/2000/svg">
<g clip-path="url(#clip0_38_22369)">
<path fill-rule="evenodd" clip-rule="evenodd" d="M12.6667 2C13.0203 2 13.3594 2.14048 13.6095 2.39052C13.8595 2.64057 14 2.97971 14 3.33333V12.6667C14 13.0203 13.8595 13.3594 13.6095 13.6095C13.3594 13.8595 13.0203 14 12.6667 14H3.33333C2.97971 14 2.64057 13.8595 2.39052 13.6095C2.14048 13.3594 2 13.0203 2 12.6667V3.33333C2 2.97971 2.14048 2.64057 2.39052 2.39052C2.64057 2.14048 2.97971 2 3.33333 2H12.6667ZM5.33333 3.33333H3.33333V12.6667H5.33333V3.33333ZM8.52867 6.11467C8.40369 6.23969 8.33348 6.40922 8.33348 6.586C8.33348 6.76278 8.40369 6.93232 8.52867 7.05733L9.47133 8L8.52867 8.94267C8.46499 9.00416 8.41421 9.07773 8.37927 9.15906C8.34433 9.2404 8.32594 9.32788 8.32517 9.4164C8.3244 9.50492 8.34127 9.59271 8.37479 9.67464C8.40831 9.75657 8.45781 9.831 8.5204 9.8936C8.583 9.95619 8.65743 10.0057 8.73936 10.0392C8.8213 10.0727 8.90908 10.0896 8.9976 10.0888C9.08612 10.0881 9.1736 10.0697 9.25494 10.0347C9.33627 9.99979 9.40984 9.94901 9.47133 9.88533L10.8853 8.472C10.9473 8.41008 10.9965 8.33656 11.03 8.25563C11.0636 8.1747 11.0809 8.08794 11.0809 8.00033C11.0809 7.91272 11.0636 7.82597 11.03 7.74504C10.9965 7.66411 10.9473 7.59058 10.8853 7.52867L9.472 6.11467C9.41008 6.05268 9.33656 6.00351 9.25563 5.96996C9.1747 5.93641 9.08794 5.91914 9.00033 5.91914C8.91272 5.91914 8.82597 5.93641 8.74504 5.96996C8.66411 6.00351 8.59058 6.05268 8.52867 6.11467Z" fill="#8378FF"/>
</g>
<defs>
<clipPath id="clip0_38_22369">
<rect width="16" height="16" fill="white"/>
</clipPath>
</defs>
</svg>
