<svg width="16" height="16" viewBox="0 0 16 16" fill="none" xmlns="http://www.w3.org/2000/svg">
<path fill-rule="evenodd" clip-rule="evenodd" d="M2 3.33333C2 2.97971 2.14048 2.64057 2.39052 2.39052C2.64057 2.14048 2.97971 2 3.33333 2H12.6667C13.0203 2 13.3594 2.14048 13.6095 2.39052C13.8595 2.64057 14 2.97971 14 3.33333V12.6667C14 13.0203 13.8595 13.3594 13.6095 13.6095C13.3594 13.8595 13.0203 14 12.6667 14H3.33333C2.97971 14 2.64057 13.8595 2.39052 13.6095C2.14048 13.3594 2 13.0203 2 12.6667V3.33333ZM3.33333 3.33333H5.33333V12.6667H3.33333V3.33333ZM10.8047 7.05733L9.862 8L10.8047 8.94267C10.9261 9.0684 10.9933 9.2368 10.9918 9.4116C10.9903 9.5864 10.9202 9.75361 10.7965 9.87721C10.6729 10.0008 10.5057 10.0709 10.3309 10.0724C10.1561 10.074 9.98774 10.0068 9.862 9.88533L8.448 8.472C8.38602 8.41008 8.33684 8.33656 8.30329 8.25563C8.26974 8.1747 8.25248 8.08794 8.25248 8.00033C8.25248 7.91272 8.26974 7.82597 8.30329 7.74504C8.33684 7.66411 8.38602 7.59058 8.448 7.52867L9.862 6.11467C9.9235 6.05099 9.99706 6.00021 10.0784 5.96527C10.1597 5.93033 10.2472 5.91194 10.3357 5.91117C10.4243 5.9104 10.512 5.92727 10.594 5.96079C10.6759 5.99431 10.7503 6.04381 10.8129 6.1064C10.8755 6.169 10.925 6.24343 10.9585 6.32536C10.9921 6.40729 11.0089 6.49508 11.0082 6.5836C11.0074 6.67212 10.989 6.7596 10.9541 6.84094C10.9191 6.92227 10.8683 6.99584 10.8047 7.05733Z" fill="#0E253C" fill-opacity="0.85"/>
</svg>
