<svg width="20" height="20" viewBox="0 0 20 20" fill="none" xmlns="http://www.w3.org/2000/svg">
<path d="M4.16699 3H6.16699V5.41699C6.16707 5.82279 6.30765 6.21414 6.5625 6.52539L6.67969 6.6543C7.00785 6.98228 7.45302 7.16699 7.91699 7.16699H11.25C11.7141 7.16699 12.1591 6.98238 12.4873 6.6543C12.8154 6.32618 12.9999 5.881 13 5.41699V3C13.2666 3.00274 13.523 3.0969 13.7275 3.26465L13.8135 3.3418L15.8252 5.35352C16.0439 5.57224 16.1669 5.86938 16.167 6.17871V15.833C16.167 16.1037 16.0723 16.3647 15.9023 16.5723L15.8252 16.6582C15.6064 16.877 15.3094 17 15 17H13.833V11.667C13.833 11.1643 13.6585 10.6794 13.3428 10.2939L13.1992 10.1348C12.793 9.72851 12.2415 9.50009 11.667 9.5H7.5C6.99731 9.5 6.51246 9.67447 6.12695 9.99023L5.96777 10.1348C5.56155 10.5411 5.33301 11.0924 5.33301 11.667V17H4.16699C3.89627 17 3.63533 16.9054 3.42773 16.7354L3.3418 16.6582C3.123 16.4394 3 16.1424 3 15.833V4.16699C3 3.89627 3.09458 3.63533 3.26465 3.42773L3.3418 3.3418C3.53333 3.15026 3.78454 3.0323 4.05176 3.00586L4.16699 3ZM11.167 12.167V17H8V12.167H11.167ZM10.333 3V4.5H8.83301V3H10.333Z" fill="#22C55E" stroke="#22C55E"/>
</svg>
